<?xml version="1.0" encoding="UTF-8"?><svg id="Layer_1" xmlns="http://www.w3.org/2000/svg" xmlns:xlink="http://www.w3.org/1999/xlink" viewBox="0 0 150.24 162.25"><defs><style>.cls-1,.cls-2{fill:#fff;}.cls-3{mask:url(#mask-10);}.cls-2,.cls-4,.cls-5,.cls-6,.cls-7,.cls-8{fill-rule:evenodd;}.cls-9{mask:url(#mask-2);}.cls-10{mask:url(#mask-6-2);}.cls-4,.cls-11{fill:#352320;}.cls-12{fill:#ffdbb4;}.cls-13{mask:url(#mask-3);}.cls-5{fill:rgba(53,35,32,.16);}.cls-14{fill:none;stroke:#25557c;stroke-linecap:round;stroke-linejoin:round;stroke-width:.67px;}.cls-15{mask:url(#mask-9);}.cls-16{mask:url(#mask-12);}.cls-17,.cls-6{fill:#e6e6e6;}.cls-18{mask:url(#mask-5);}.cls-19{fill:#25557c;}.cls-20{mask:url(#mask-8);}.cls-21{mask:url(#mask-4);}.cls-7{fill:#d0c6ac;}.cls-22{fill:#65c9ff;}.cls-23{mask:url(#mask-1);}.cls-24{mask:url(#mask);}.cls-25{mask:url(#mask-7);}.cls-26{mask:url(#mask-11);}.cls-27{fill:#ff4f6d;}</style><mask id="mask" x="-832.74" y="-47.24" width="811.52" height="860.7" maskUnits="userSpaceOnUse"/><mask id="mask-1" x="-832.74" y="-47.24" width="811.52" height="860.7" maskUnits="userSpaceOnUse"/><mask id="mask-2" x="-712.86" y="-1.14" width="811.52" height="860.7" maskUnits="userSpaceOnUse"/><mask id="mask-3" x="6.91" y="20.22" width="136.5" height="136.5" maskUnits="userSpaceOnUse"><g id="mask-2-2"><circle id="path-1-2" class="cls-1" cx="75.16" cy="88.47" r="68.25"/></g></mask><mask id="mask-4" x=".09" y="-2.53" width="150.15" height="159.25" maskUnits="userSpaceOnUse"><g id="mask-4-2"><path id="path-3" class="cls-2" d="M6.91,88.47c0,37.69,30.56,68.25,68.25,68.25s68.25-30.56,68.25-68.25h6.83V-2.53H.09V88.47H6.91Z"/></g></mask><mask id="mask-5" x=".09" y="17.94" width="150.15" height="138.78" maskUnits="userSpaceOnUse"><g id="mask-6"><path id="path-5-2" class="cls-2" d="M88.81,100.19v10.46h2.28c22.62,0,40.95,18.33,40.95,40.95v5.12H18.29v-5.12c0-22.62,18.33-40.95,40.95-40.95h2.28v-10.46c-9.8-4.66-16.85-14.18-18.03-25.44-3.31-.47-5.86-3.32-5.86-6.76v-7.96c0-3.38,2.46-6.19,5.69-6.73v-3.51h0c0-17.59,14.26-31.85,31.85-31.85h0c17.59,0,31.85,14.26,31.85,31.85v3.51c3.23,.54,5.69,3.35,5.69,6.73v7.96c0,3.44-2.55,6.29-5.86,6.76-1.18,11.26-8.22,20.78-18.03,25.44Z"/></g></mask><mask id="mask-6-2" x="18.29" y="17.94" width="113.75" height="138.78" maskUnits="userSpaceOnUse"><g id="mask-6-3"><path id="path-5-3" class="cls-2" d="M88.81,100.19v10.46h2.28c22.62,0,40.95,18.33,40.95,40.95v5.12H18.29v-5.12c0-22.62,18.33-40.95,40.95-40.95h2.28v-10.46c-9.8-4.66-16.85-14.18-18.03-25.44-3.31-.47-5.86-3.32-5.86-6.76v-7.96c0-3.38,2.46-6.19,5.69-6.73v-3.51h0c0-17.59,14.26-31.85,31.85-31.85h0c17.59,0,31.85,14.26,31.85,31.85v3.51c3.23,.54,5.69,3.35,5.69,6.73v7.96c0,3.44-2.55,6.29-5.86,6.76-1.18,11.26-8.22,20.78-18.03,25.44Z"/></g></mask><mask id="mask-7" x=".09" y="94.16" width="150.15" height="62.56" maskUnits="userSpaceOnUse"><g id="react-mask-34"><path id="react-path-33-2" class="cls-2" d="M97.53,111.19c19.56,3.09,34.51,20.02,34.51,40.45v5.09H18.29v-5.09c0-20.43,14.96-37.36,34.51-40.45,.51,2.88,1.95,5.62,4.3,7.74h0l16.54,14.92c.87,.78,2.18,.78,3.05,0h0l16.54-14.92c.24-.22,.48-.45,.7-.68,1.94-2.02,3.14-4.49,3.6-7.06Z"/></g></mask><mask id="mask-8" x="65.66" y="74.82" width="9.73" height="17.06" maskUnits="userSpaceOnUse"><g id="react-mask-54"><path id="react-path-53-2" class="cls-2" d="M65.66,82.29c.27,5.4,2.35,9.6,4.86,9.6s4.6-4.22,4.86-9.65c.02-.44-.2-1.16-.48-1.16h-8.74c-.28,0-.53,.67-.51,1.21Z"/></g></mask><mask id="mask-9" x="74.64" y="74.82" width="9.73" height="17.06" maskUnits="userSpaceOnUse"><g id="react-mask-54-2"><path id="react-path-53-3" class="cls-2" d="M74.64,82.29c.27,5.4,2.35,9.6,4.86,9.6s4.6-4.22,4.86-9.65c.02-.44-.2-1.16-.48-1.16h-8.74c-.28,0-.53,.67-.51,1.21Z"/></g></mask><mask id="mask-10" x="64.42" y="81.08" width="21.49" height="18.77" maskUnits="userSpaceOnUse"><g id="react-mask-54-3"><path id="react-path-53-4" class="cls-2" d="M64.42,82.29c.6,5.4,5.18,9.6,10.74,9.6s10.17-4.22,10.74-9.65c.05-.44-.44-1.16-1.05-1.16h-19.31c-.61,0-1.18,.67-1.12,1.21Z"/></g></mask><mask id="mask-11" x=".09" y="-2.53" width="150.15" height="159.25" maskUnits="userSpaceOnUse"><g id="react-mask-22"><rect id="react-path-24" class="cls-1" x=".09" y="-2.53" width="150.15" height="159.25"/></g></mask><mask id="mask-12" x="22.27" y="6" width="150.15" height="159.25" maskUnits="userSpaceOnUse"><g id="react-mask-23"><path id="react-path-25" class="cls-2" d="M34.21,95.6V45.27c0-2.01,.23-3.97,.66-5.84,1.74-11.4,8.32-20.45,15.84-26.03,11.32-8.39,30.4-10.82,37-.84,4.92-2.18,12.21-.19,17.6,4.82,5.44,5.35,9.78,17.18,7.2,26.85,.06,.72,.09,1.45,.09,2.18v12.43c-.5-2.83-2.75-5.06-5.58-5.53v-.09c-3.43-12.25-13.52-17.87-19.66-23.45-9.61,10.75-39.59,10.79-49.73,31.98v5.69c0,3.42,2.52,6.26,5.81,6.75,.99,11.52,8.11,21.28,18.08,26.02v.22c1.67,24.94-3.78,56.19-39.24,46.64,7.74-4.53,11.83-33.53,11.94-51.45Zm54.6,4.59c9.97-4.74,17.09-14.5,18.08-26.02,2.89-.43,5.19-2.68,5.7-5.55v.77h0c0,9,2.14,17.88,6.24,25.89l15.33,29.98c3.96,7.75,2.8,16.76-2.24,23.19-1.61-21.15-19.27-37.81-40.83-37.81h-2.28v-10.46Z"/></g></mask></defs><g id="avatarmaker"><g id="avatarmaker_Circle" transform="translate(-825.000000, -1100.000000)"><g transform="translate(825.000000, 1100.000000)"><g class="cls-24"><g id="avatarmaker-2"><g id="Top"><g class="cls-23"><g id="Top_Long-Hair_Straight"><g transform="translate(-1.000000, 0.000000)"><g id="Hair" transform="translate(40.000000, 15.000000)"><g class="cls-9"><g id="Skin___-03-Brown"><g id="Color" transform="translate(0.000000, 0.000000) "><rect class="cls-11" x="-712.86" y="-1.14" width="811.52" height="860.7"/></g></g></g></g></g></g></g></g></g></g></g></g></g><g><g id="avatarmaker-3"><g id="avatarmaker_Circle-2" transform="translate(-825.000000, -1100.000000)"><g transform="translate(825.000000, 1100.000000)"><g id="Circle" transform="translate(12.000000, 40.000000)"><g id="Circle-Background"><circle id="path-1" class="cls-17" cx="75.16" cy="88.47" r="68.25"/></g><g class="cls-13"><g id="ColorPaletteBlue01"><rect id="_Color" class="cls-22" x="6.91" y="20.22" width="136.5" height="136.5"/></g></g></g><g class="cls-21"><g id="avatarmaker-4"><g id="Body" transform="translate(32.000000, 36.000000)"><path id="path-5" class="cls-7" d="M88.81,100.19v10.46h2.28c22.62,0,40.95,18.33,40.95,40.95v5.12H18.29v-5.12c0-22.62,18.33-40.95,40.95-40.95h2.28v-10.46c-9.8-4.66-16.85-14.18-18.03-25.44-3.31-.47-5.86-3.32-5.86-6.76v-7.96c0-3.38,2.46-6.19,5.69-6.73v-3.51h0c0-17.59,14.26-31.85,31.85-31.85h0c17.59,0,31.85,14.26,31.85,31.85v3.51c3.23,.54,5.69,3.35,5.69,6.73v7.96c0,3.44-2.55,6.29-5.86,6.76-1.18,11.26-8.22,20.78-18.03,25.44Z"/><g class="cls-18"><g id="Skin___-03-Brown-2"><g id="Color-2" transform="translate(-32.000000, 0.000000)"><rect class="cls-12" x=".09" y="17.94" width="150.15" height="138.78"/></g></g></g><g class="cls-10"><path id="Neck-Shadow" class="cls-8" d="M107.01,62.88v13.08c0,17.59-14.26,31.85-31.85,31.85s-31.85-14.26-31.85-31.85v-4.55c0,17.59,14.26,31.85,31.85,31.85s31.85-14.26,31.85-31.85v-8.53Z"/></g></g><g id="Clothing_Shirt-V-Neck" transform="translate(0.000000, 170.000000)"><g id="Clothes"><path id="react-path-33" class="cls-6" d="M97.53,111.19c19.56,3.09,34.51,20.02,34.51,40.45v5.09H18.29v-5.09c0-20.43,14.96-37.36,34.51-40.45,.51,2.88,1.95,5.62,4.3,7.74h0l16.54,14.92c.87,.78,2.18,.78,3.05,0h0l16.54-14.92c.24-.22,.48-.45,.7-.68,1.94-2.02,3.14-4.49,3.6-7.06Z"/></g><g class="cls-25"><g id="Color_Palette_Gray-01"><rect id="_Color-2" class="cls-19" x=".09" y="94.16" width="150.15" height="62.56"/></g></g></g><g id="Face" transform="translate(76.000000, 82.000000)"><g id="Mouth_Smile" transform="translate(2.000000, 52.000000)"><g id="Mouth"><path id="react-path-53" class="cls-8" d="M64.4,82.29c.6,5.4,5.18,9.6,10.74,9.6s10.17-4.22,10.74-9.65c.05-.44-.44-1.16-1.05-1.16h-19.31c-.61,0-1.18,.67-1.12,1.21Z"/></g><g><g class="cls-20"><path id="Teeth" class="cls-2" d="M67.95,74.82h5.41c.71,0,1.29,1.27,1.29,2.84v3.41c0,1.57-.58,2.84-1.29,2.84h-5.41c-.71,0-1.29-1.27-1.29-2.84v-3.41c0-1.57,.58-2.84,1.29-2.84Z"/></g><g class="cls-15"><path id="Teeth-2" class="cls-2" d="M76.93,74.82h5.41c.71,0,1.29,1.27,1.29,2.84v3.41c0,1.57-.58,2.84-1.29,2.84h-5.41c-.71,0-1.29-1.27-1.29-2.84v-3.41c0-1.57,.58-2.84,1.29-2.84Z"/></g></g><g class="cls-3"><g id="Tongue"><g transform="translate(38.000000, 24.000000)"><circle class="cls-27" cx="72.32" cy="93.59" r="6.26"/><circle class="cls-27" cx="78.01" cy="93.59" r="6.26"/></g></g></g></g><g id="Nose_Default" transform="translate(28.000000, 40.000000)"><path id="Nose" class="cls-8" d="M68.34,71.41c0,2.51,3.06,4.55,6.83,4.55h0c3.77,0,6.83-2.04,6.83-4.55"/></g><g id="Eyes_Happy-_" transform="translate(0.000000, 8.000000)"><path id="Squint" class="cls-8" d="M52.5,61.42c1.05-2.16,3.42-3.67,6.16-3.67s5.1,1.5,6.15,3.64c.31,.64-.13,1.16-.58,.77-1.39-1.2-3.37-1.95-5.57-1.95s-4.05,.7-5.44,1.84c-.51,.41-1.03,0-.73-.64Z"/><path id="Squint-2" class="cls-8" d="M85.49,61.42c1.05-2.16,3.42-3.67,6.16-3.67s5.1,1.5,6.15,3.64c.31,.64-.13,1.16-.58,.77-1.39-1.2-3.37-1.95-5.57-1.95s-4.05,.7-5.44,1.84c-.51,.41-1.03,0-.73-.64Z"/></g><g id="Eyebrow_Outline_Up-Down"><path id="Eyebrow" d="M52.18,52.16c2.56-3.6,7.97-5.41,13.51-3.62,.6,.19,1.24-.14,1.43-.73,.19-.6-.14-1.24-.73-1.43-6.49-2.09-12.93,.06-16.06,4.47-.36,.51-.24,1.22,.27,1.59,.51,.36,1.22,.24,1.59-.27Z"/><path id="Eyebrow-2" d="M98.13,56.14c-2.23-3.13-8.33-4.89-13.59-3.6-.61,.15-1.23-.22-1.38-.83-.15-.61,.22-1.23,.83-1.38,6.11-1.5,13.18,.53,15.99,4.49,.36,.51,.24,1.22-.27,1.59-.51,.36-1.22,.24-1.59-.27Z"/></g></g><g id="Top-2"><g class="cls-26"><g id="Top_Long-Hair_Straight-2"><g transform="translate(-1.000000, 0.000000)"><g id="Hair-2" transform="translate(40.000000, 15.000000)"><g><path class="cls-4" d="M34.21,95.6V45.27c0-2.01,.23-3.97,.66-5.84,1.74-11.4,8.32-20.45,15.84-26.03,11.32-8.39,30.4-10.82,37-.84,4.92-2.18,12.21-.19,17.6,4.82,5.44,5.35,9.78,17.18,7.2,26.85,.06,.72,.09,1.45,.09,2.18v12.43c-.5-2.83-2.75-5.06-5.58-5.53v-.09c-3.43-12.25-13.52-17.87-19.66-23.45-9.61,10.75-39.59,10.79-49.73,31.98v5.69c0,3.42,2.52,6.26,5.81,6.75,.99,11.52,8.11,21.28,18.08,26.02v.22c1.67,24.94-3.78,56.19-39.24,46.64,7.74-4.53,11.83-33.53,11.94-51.45Z"/><path class="cls-4" d="M88.81,100.19c9.97-4.74,17.09-14.5,18.08-26.02,2.89-.43,5.19-2.68,5.7-5.55v.77h0c0,9,2.14,17.88,6.24,25.89l15.33,29.98c3.96,7.75,2.8,16.76-2.24,23.19-1.61-21.15-19.27-37.81-40.83-37.81h-2.28v-10.46Z"/></g><g class="cls-16"><g id="Skin___-03-Brown-3"><g id="Color-3" transform="translate(0.000000, 0.000000) "><rect class="cls-11" x="22.27" y="6" width="150.15" height="159.25"/></g></g></g></g><path id="Shadow" class="cls-5" d="M37.62,61.74c10.14-18.39,40.12-18.42,49.73-27.75,6.13,4.83,16.19,8.56,19.64,19.14-3.45-12.2-13.51-17.81-19.64-23.37-9.61,10.75-39.59,10.79-49.73,31.98Z"/></g></g></g></g></g></g></g></g></g><g><circle class="cls-19" cx="40.95" cy="72.31" r="1.14"/><path class="cls-19" d="M43.52,81.11c0,1.42-1.15,2.57-2.57,2.57s-2.57-1.15-2.57-2.57,1.15-4.24,2.57-4.24,2.57,2.82,2.57,4.24Z"/><line class="cls-14" x1="40.95" y1="73.44" x2="40.95" y2="78.99"/></g><g><circle class="cls-19" cx="108.76" cy="72.31" r="1.14"/><path class="cls-19" d="M111.33,81.11c0,1.42-1.15,2.57-2.57,2.57s-2.57-1.15-2.57-2.57,1.15-4.24,2.57-4.24,2.57,2.82,2.57,4.24Z"/><line class="cls-14" x1="108.76" y1="73.44" x2="108.76" y2="78.99"/></g></g></svg>