<?xml version="1.0" encoding="UTF-8"?><svg id="Layer_1" xmlns="http://www.w3.org/2000/svg" xmlns:xlink="http://www.w3.org/1999/xlink" viewBox="0 0 745.34 823.07"><defs><style>.cls-1,.cls-2{fill:#fff;}.cls-2,.cls-3,.cls-4,.cls-5,.cls-6,.cls-7{fill-rule:evenodd;}.cls-3,.cls-8{fill:#352320;}.cls-9{fill:#ffdbb4;}.cls-10{mask:url(#mask-3);}.cls-4{fill:rgba(53,35,32,.16);}.cls-11{mask:url(#mask-9);}.cls-12,.cls-5{fill:#e6e6e6;}.cls-13{mask:url(#mask-5);}.cls-14{fill:#25557c;}.cls-15{mask:url(#mask-8);}.cls-6{fill:#d0c6ac;}.cls-16{mask:url(#mask-2-2);}.cls-17{fill:#65c9ff;}.cls-18{mask:url(#mask-4-2);}.cls-19{mask:url(#mask-1);}.cls-20{mask:url(#mask);}.cls-21{mask:url(#mask-6-3);}.cls-22{mask:url(#mask-7);}.cls-23{fill:none;stroke:#25557c;stroke-linecap:round;stroke-linejoin:round;stroke-width:3.61px;}.cls-24{fill:#ff4f6d;}</style><mask id="mask" x="4.55" y="80.94" width="737.75" height="737.75" maskUnits="userSpaceOnUse"><g id="mask-2"><circle id="path-1-2" class="cls-1" cx="373.42" cy="449.81" r="368.87"/></g></mask><mask id="mask-1" x="-32.34" y="-42.02" width="811.52" height="860.7" maskUnits="userSpaceOnUse"><g id="mask-4"><path id="path-3" class="cls-2" d="M4.55,449.81c0,203.72,165.15,368.87,368.87,368.87s368.87-165.15,368.87-368.87h36.89V-42.02H-32.34V449.81H4.55Z"/></g></mask><mask id="mask-2-2" x="-32.34" y="68.64" width="811.52" height="750.04" maskUnits="userSpaceOnUse"><g id="mask-6"><path id="path-5-2" class="cls-2" d="M447.19,513.17v56.53h12.3c122.23,0,221.32,99.09,221.32,221.32v27.67H66.03v-27.67c0-122.23,99.09-221.32,221.32-221.32h12.3v-56.53c-52.99-25.17-91.07-76.61-97.43-137.5-17.91-2.53-31.68-17.92-31.68-36.52v-43.04c0-18.28,13.29-33.45,30.74-36.38v-18.95h0c0-95.07,77.07-172.14,172.14-172.14h0c95.07,0,172.14,77.07,172.14,172.14v18.95c17.45,2.93,30.74,18.1,30.74,36.38v43.04c0,18.6-13.77,33.99-31.68,36.52-6.35,60.88-44.44,112.33-97.43,137.5Z"/></g></mask><mask id="mask-3" x="66.03" y="68.64" width="614.79" height="750.04" maskUnits="userSpaceOnUse"><g id="mask-6-2"><path id="path-5-3" class="cls-2" d="M447.19,513.17v56.53h12.3c122.23,0,221.32,99.09,221.32,221.32v27.67H66.03v-27.67c0-122.23,99.09-221.32,221.32-221.32h12.3v-56.53c-52.99-25.17-91.07-76.61-97.43-137.5-17.91-2.53-31.68-17.92-31.68-36.52v-43.04c0-18.28,13.29-33.45,30.74-36.38v-18.95h0c0-95.07,77.07-172.14,172.14-172.14h0c95.07,0,172.14,77.07,172.14,172.14v18.95c17.45,2.93,30.74,18.1,30.74,36.38v43.04c0,18.6-13.77,33.99-31.68,36.52-6.35,60.88-44.44,112.33-97.43,137.5Z"/></g></mask><mask id="mask-4-2" x="-32.34" y="480.55" width="811.52" height="338.13" maskUnits="userSpaceOnUse"><g id="react-mask-34"><path id="react-path-33-2" class="cls-2" d="M494.29,572.57c105.7,16.69,186.53,108.21,186.53,218.6v27.51H66.03v-27.51c0-110.4,80.83-201.91,186.53-218.6,2.77,15.58,10.56,30.39,23.22,41.81h0l89.41,80.63c4.68,4.22,11.79,4.22,16.47,0h0l89.41-80.63c1.31-1.18,2.57-2.41,3.79-3.68,10.5-10.93,16.97-24.26,19.43-38.14Z"/></g></mask><mask id="mask-5" x="322.04" y="376.03" width="52.59" height="92.22" maskUnits="userSpaceOnUse"><g id="react-mask-54"><path id="react-path-53-2" class="cls-2" d="M322.05,416.39c1.47,29.18,12.68,51.86,26.28,51.86s24.88-22.83,26.29-52.13c.11-2.36-1.08-6.27-2.57-6.27h-47.26c-1.5,0-2.89,3.62-2.74,6.54Z"/></g></mask><mask id="mask-6-3" x="370.58" y="376.03" width="52.59" height="92.22" maskUnits="userSpaceOnUse"><g id="react-mask-54-2"><path id="react-path-53-3" class="cls-2" d="M370.59,416.39c1.47,29.18,12.68,51.86,26.28,51.86s24.88-22.83,26.29-52.13c.11-2.36-1.08-6.27-2.57-6.27h-47.26c-1.5,0-2.89,3.62-2.74,6.54Z"/></g></mask><mask id="mask-7" x="315.35" y="409.85" width="116.16" height="101.44" maskUnits="userSpaceOnUse"><g id="react-mask-54-3"><path id="react-path-53-4" class="cls-2" d="M315.38,416.39c3.25,29.18,28,51.86,58.04,51.86s54.94-22.83,58.07-52.13c.25-2.36-2.38-6.27-5.68-6.27h-104.38c-3.32,0-6.38,3.62-6.05,6.54Z"/></g></mask><mask id="mask-8" x="-32.34" y="-42.02" width="811.52" height="860.7" maskUnits="userSpaceOnUse"><g id="react-mask-22"><rect id="react-path-24" class="cls-1" x="-32.34" y="-42.02" width="811.52" height="860.7"/></g></mask><mask id="mask-9" x="87.54" y="4.09" width="811.52" height="860.7" maskUnits="userSpaceOnUse"><g id="react-mask-23"><path id="react-path-25" class="cls-2" d="M152.1,488.36V216.33c0-10.86,1.22-21.43,3.54-31.59,9.39-61.6,44.95-110.54,85.6-140.7,61.19-45.37,164.28-58.46,199.95-4.54,26.59-11.81,66-1.05,95.15,26.06,29.4,28.94,52.87,92.82,38.91,145.1,.32,3.89,.49,7.82,.49,11.8v67.17c-2.71-15.29-14.84-27.32-30.17-29.9v-.51c-18.55-66.2-73.07-96.58-106.27-126.72-51.93,58.09-213.97,58.29-268.75,172.83v30.74c0,18.5,13.62,33.82,31.38,36.48,5.36,62.24,43.84,115.01,97.72,140.61v1.2c9.01,134.81-20.42,303.7-212.1,252.06,41.82-24.48,63.96-181.19,64.55-278.07Zm295.1,24.81c53.89-25.6,92.37-78.37,97.72-140.61,15.64-2.34,28.07-14.5,30.81-30v4.19h0c0,48.65,11.55,96.61,33.7,139.94l82.84,162.02c21.4,41.86,15.12,90.6-12.1,125.32-8.68-114.29-104.17-204.32-220.68-204.32h-12.3v-56.53Z"/></g></mask></defs><g id="avatarmaker"><g id="avatarmaker_Circle" transform="translate(-825.000000, -1100.000000)"><g transform="translate(825.000000, 1100.000000)"><g id="Circle" transform="translate(12.000000, 40.000000)"><g id="Circle-Background"><circle id="path-1" class="cls-12" cx="373.42" cy="449.81" r="368.87"/></g><g class="cls-20"><g id="ColorPaletteBlue01"><rect id="_Color" class="cls-17" x="4.55" y="80.94" width="737.75" height="737.75"/></g></g></g><g class="cls-19"><g id="avatarmaker-2"><g id="Body" transform="translate(32.000000, 36.000000)"><path id="path-5" class="cls-6" d="M447.19,513.17v56.53h12.3c122.23,0,221.32,99.09,221.32,221.32v27.67H66.03v-27.67c0-122.23,99.09-221.32,221.32-221.32h12.3v-56.53c-52.99-25.17-91.07-76.61-97.43-137.5-17.91-2.53-31.68-17.92-31.68-36.52v-43.04c0-18.28,13.29-33.45,30.74-36.38v-18.95h0c0-95.07,77.07-172.14,172.14-172.14h0c95.07,0,172.14,77.07,172.14,172.14v18.95c17.45,2.93,30.74,18.1,30.74,36.38v43.04c0,18.6-13.77,33.99-31.68,36.52-6.35,60.88-44.44,112.33-97.43,137.5Z"/><g class="cls-16"><g id="Skin___-03-Brown"><g id="Color" transform="translate(-32.000000, 0.000000)"><rect class="cls-9" x="-32.34" y="68.64" width="811.52" height="750.04"/></g></g></g><g class="cls-10"><path id="Neck-Shadow" class="cls-7" d="M545.56,311.48v70.7c0,95.07-77.07,172.14-172.14,172.14s-172.14-77.07-172.14-172.14v-24.59c0,95.07,77.07,172.14,172.14,172.14s172.14-77.07,172.14-172.14v-46.11Z"/></g></g><g id="Clothing_Shirt-V-Neck" transform="translate(0.000000, 170.000000)"><g id="Clothes"><path id="react-path-33" class="cls-5" d="M494.29,572.57c105.7,16.69,186.53,108.21,186.53,218.6v27.51H66.03v-27.51c0-110.4,80.83-201.91,186.53-218.6,2.77,15.58,10.56,30.39,23.22,41.81h0l89.41,80.63c4.68,4.22,11.79,4.22,16.47,0h0l89.41-80.63c1.31-1.18,2.57-2.41,3.79-3.68,10.5-10.93,16.97-24.26,19.43-38.14Z"/></g><g class="cls-18"><g id="Color_Palette_Gray-01"><rect id="_Color-2" class="cls-14" x="-32.34" y="480.55" width="811.52" height="338.13"/></g></g></g><g id="Face" transform="translate(76.000000, 82.000000)"><g id="Mouth_Smile" transform="translate(2.000000, 52.000000)"><g id="Mouth"><path id="react-path-53" class="cls-7" d="M315.24,416.39c3.25,29.18,28,51.86,58.04,51.86s54.94-22.83,58.07-52.13c.25-2.36-2.38-6.27-5.68-6.27h-104.38c-3.32,0-6.38,3.62-6.05,6.54Z"/></g><g><g class="cls-13"><path id="Teeth" class="cls-2" d="M334.41,376.03h29.23c3.84,0,6.96,6.88,6.96,15.37v18.44c0,8.49-3.12,15.37-6.96,15.37h-29.23c-3.84,0-6.96-6.88-6.96-15.37v-18.44c0-8.49,3.12-15.37,6.96-15.37Z"/></g><g class="cls-21"><path id="Teeth-2" class="cls-2" d="M382.95,376.03h29.23c3.84,0,6.96,6.88,6.96,15.37v18.44c0,8.49-3.12,15.37-6.96,15.37h-29.23c-3.84,0-6.96-6.88-6.96-15.37v-18.44c0-8.49,3.12-15.37,6.96-15.37Z"/></g></g><g class="cls-22"><g id="Tongue"><g transform="translate(38.000000, 24.000000)"><circle class="cls-24" cx="358.05" cy="477.47" r="33.81"/><circle class="cls-24" cx="388.79" cy="477.47" r="33.81"/></g></g></g></g><g id="Nose_Default" transform="translate(28.000000, 40.000000)"><path id="Nose" class="cls-7" d="M336.53,357.59c0,13.58,16.52,24.59,36.89,24.59h0c20.37,0,36.89-11.01,36.89-24.59"/></g><g id="Eyes_Happy-_" transform="translate(0.000000, 8.000000)"><path id="Squint" class="cls-7" d="M250.95,303.63c5.68-11.68,18.46-19.82,33.31-19.82s27.55,8.08,33.25,19.7c1.69,3.45-.72,6.27-3.15,4.18-7.53-6.48-18.23-10.52-30.1-10.52s-21.9,3.8-29.39,9.92c-2.74,2.24-5.59-.04-3.93-3.46Z"/><path id="Squint-2" class="cls-7" d="M429.24,303.63c5.68-11.68,18.46-19.82,33.31-19.82s27.55,8.08,33.25,19.7c1.69,3.45-.72,6.27-3.15,4.18-7.53-6.48-18.23-10.52-30.1-10.52s-21.9,3.8-29.39,9.92c-2.74,2.24-5.59-.04-3.93-3.46Z"/></g><g id="Eyebrow_Outline_Up-Down"><path id="Eyebrow" d="M249.21,253.57c13.82-19.45,43.07-29.23,73.02-19.57,3.23,1.04,6.7-.73,7.74-3.96,1.04-3.23-.73-6.7-3.96-7.74-35.07-11.31-69.9,.34-86.82,24.15-1.97,2.77-1.32,6.61,1.45,8.57,2.77,1.97,6.61,1.32,8.57-1.45Z"/><path id="Eyebrow-2" d="M497.54,275.08c-12.03-16.93-45.03-26.43-73.44-19.45-3.3,.81-6.63-1.21-7.44-4.5-.81-3.3,1.21-6.63,4.5-7.44,33-8.1,71.21,2.89,86.4,24.27,1.97,2.77,1.32,6.61-1.45,8.57-2.77,1.97-6.61,1.32-8.57-1.45Z"/></g></g><g id="Top"><g class="cls-15"><g id="Top_Long-Hair_Straight"><g transform="translate(-1.000000, 0.000000)"><g id="Hair" transform="translate(40.000000, 15.000000)"><g><path class="cls-3" d="M152.1,488.36V216.33c0-10.86,1.22-21.43,3.54-31.59,9.39-61.6,44.95-110.54,85.6-140.7,61.19-45.37,164.28-58.46,199.95-4.54,26.59-11.81,66-1.05,95.15,26.06,29.4,28.94,52.87,92.82,38.91,145.1,.32,3.89,.49,7.82,.49,11.8v67.17c-2.71-15.29-14.84-27.32-30.17-29.9v-.51c-18.55-66.2-73.07-96.58-106.27-126.72-51.93,58.09-213.97,58.29-268.75,172.83v30.74c0,18.5,13.62,33.82,31.38,36.48,5.36,62.24,43.84,115.01,97.72,140.61v1.2c9.01,134.81-20.42,303.7-212.1,252.06,41.82-24.48,63.96-181.19,64.55-278.07Z"/><path class="cls-3" d="M447.19,513.17c53.89-25.6,92.37-78.37,97.72-140.61,15.64-2.34,28.07-14.5,30.81-30v4.19h0c0,48.65,11.55,96.61,33.7,139.94l82.84,162.02c21.4,41.86,15.12,90.6-12.1,125.32-8.68-114.29-104.17-204.32-220.68-204.32h-12.3v-56.53Z"/></g><g class="cls-11"><g id="Skin___-03-Brown-2"><g id="Color-2" transform="translate(0.000000, 0.000000) "><rect class="cls-8" x="87.54" y="4.09" width="811.52" height="860.7"/></g></g></g></g><path id="Shadow" class="cls-4" d="M170.54,305.33c54.79-99.4,216.82-99.57,268.75-149.98,33.13,26.1,87.49,46.29,106.15,103.47-18.66-65.92-73.02-96.24-106.15-126.31-51.93,58.09-213.97,58.29-268.75,172.83Z"/></g></g></g></g></g></g></g></g></g><g><circle class="cls-14" cx="188.51" cy="362.46" r="6.14"/><path class="cls-14" d="M202.39,410c0,7.67-6.22,13.88-13.88,13.88s-13.88-6.22-13.88-13.88,6.22-22.9,13.88-22.9,13.88,15.23,13.88,22.9Z"/><line class="cls-23" x1="188.51" y1="368.6" x2="188.51" y2="398.57"/></g><g><circle class="cls-14" cx="554.98" cy="362.46" r="6.14"/><path class="cls-14" d="M568.86,410c0,7.67-6.22,13.88-13.88,13.88s-13.88-6.22-13.88-13.88,6.22-22.9,13.88-22.9,13.88,15.23,13.88,22.9Z"/><line class="cls-23" x1="554.98" y1="368.6" x2="554.98" y2="398.57"/></g></svg>